<svg xmlns="http://www.w3.org/2000/svg" viewBox="0 0 192 192" width="192" height="192">
  <defs>
    <linearGradient id="g" x1="0" y1="0" x2="1" y2="1">
      <stop offset="0%" stop-color="#0f766e" />
      <stop offset="100%" stop-color="#0a4c69" />
    </linearGradient>
  </defs>
  <rect x="0" y="0" width="192" height="192" rx="36" fill="url(#g)" />
  <path
    d="M42 117c0-12 10-22 22-22h64c12 0 22 10 22 22v6c0 8-6 14-14 14h-4c-1 9-8 16-17 16-10 0-18-8-18-18H95c0 10-8 18-18 18-9 0-16-7-17-16h-4c-8 0-14-6-14-14v-6Z"
    fill="#e9fbf7"
  />
  <circle cx="77" cy="135" r="9" fill="#0f766e" />
  <circle cx="115" cy="135" r="9" fill="#0f766e" />
  <path d="M58 95h76l-11-18a17 17 0 0 0-14-8H83a17 17 0 0 0-14 8L58 95Z" fill="#b8f3e7" />
  <path d="M96 40a23 23 0 0 1 23 23v6H73v-6a23 23 0 0 1 23-23Z" fill="#d4fff6" opacity="0.55" />
</svg>
