<svg xmlns="http://www.w3.org/2000/svg" viewBox="0 0 512 512" width="512" height="512">
  <defs>
    <linearGradient id="g" x1="0" y1="0" x2="1" y2="1">
      <stop offset="0%" stop-color="#0f766e" />
      <stop offset="100%" stop-color="#0a4c69" />
    </linearGradient>
  </defs>
  <rect x="0" y="0" width="512" height="512" rx="96" fill="url(#g)" />
  <path
    d="M112 312c0-32 26-58 58-58h172c32 0 58 26 58 58v17c0 20-16 36-36 36h-12c-2 24-21 44-46 44-26 0-47-21-47-48h-7c0 27-21 48-47 48-25 0-44-20-46-44h-12c-20 0-35-16-35-36v-17Z"
    fill="#e9fbf7"
  />
  <circle cx="204" cy="361" r="24" fill="#0f766e" />
  <circle cx="308" cy="361" r="24" fill="#0f766e" />
  <path d="M154 254h204l-29-49a46 46 0 0 0-39-21H222a46 46 0 0 0-39 21l-29 49Z" fill="#b8f3e7" />
  <path d="M256 106a62 62 0 0 1 62 62v16H194v-16a62 62 0 0 1 62-62Z" fill="#d4fff6" opacity="0.55" />
</svg>
